<svg width="130" height="89" viewBox="0 0 130 89" fill="none" xmlns="http://www.w3.org/2000/svg">
<path fill-rule="evenodd" clip-rule="evenodd" d="M103.602 0L104.424 8.14312C109.678 8.74341 107.873 5.27215 110.208 1.4616C110.341 1.6443 110.447 1.90528 110.527 2.06188L111.031 3.36686C111.11 3.60176 111.137 3.81056 111.19 4.09765C111.402 5.08944 111.296 5.48094 111.455 6.34223C111.88 9.0827 111.057 7.59502 112.702 9.7352C115.461 8.37802 114.082 7.67332 116.018 4.88065C116.098 5.01115 116.098 5.24605 116.098 5.35045L116.549 10.3355C116.575 10.205 116.708 10.8575 116.841 11.0663C120.635 7.88213 118.565 4.88065 121.802 1.69649C122.81 3.83666 121.855 4.07156 121.245 6.81203C119.096 16.6777 125.145 9.7352 130 8.87391C128.992 10.988 128.063 11.6666 126.047 13.076C122.863 15.2944 124.004 14.5897 121.802 17.1736C114.586 15.6859 114.267 12.0842 102.78 12.5279C88.0286 13.1021 73.2775 20.8798 75.6122 37.9751C79.0082 37.4792 77.3898 38.21 79.0877 35.6261C80.7326 33.0944 81.9265 28.6575 84.4735 24.6642C95.0857 7.93432 119.467 12.293 118.327 22.3936C111.933 21.9238 113.896 15.3988 104.265 15.8425C90.3102 16.4689 87.1265 24.3772 83.7572 33.486C88.9041 33.486 95.8286 31.424 99.6225 29.5449C101.718 31.424 102.01 31.1631 102.806 33.0944C99.0918 34.7648 92.1939 33.1728 87.7102 36.7484C87.0735 41.1071 89.2755 43.717 93.4939 43.195C97.1286 42.7513 98.8265 40.1936 102.886 38.8886C100.339 42.9079 99.0918 42.151 95.5633 44.3434C95.4572 48.7542 97.6857 48.9631 95.298 53.139C90.7878 52.5387 94.3959 50.8683 88.4 45.7789C87.3123 44.8393 85.6408 43.5604 84.1286 42.6469C82.2714 41.5246 80.5469 41.0287 78.7959 41.9422C77.2837 47.0839 79.751 48.2845 83.3061 50.79C85.9592 52.6431 89.3551 56.01 87.9755 59.1419C84.0225 61.3343 80.2551 56.4276 74.7102 55.8273C69.7225 69.8689 64.7347 61.4909 59.1367 60.2903C58.8449 60.734 53.6184 77.4378 53.9102 79.5519C54.4674 83.3886 57.5714 79.1604 54.9184 84.1455C46.402 80.6742 55.1041 67.6243 54.9979 63.9182C54.9184 61.0211 55.3163 62.9786 54.1755 61.3343C50.3816 63.1874 50.0898 68.8249 49.347 73.027C46.7735 87.6167 51.2571 78.9777 49.4796 85.2678C42.7673 82.4229 49.6918 72.4528 49.4531 63.8138C46.7735 63.1352 42.1837 64.7273 38.5225 64.9622C34.1714 65.2493 30.4571 64.7534 26.2388 64.91C26.6898 68.4595 34.7286 78.0381 34.8612 78.1686C37.1429 80.2827 38.4163 79.317 39.9817 80.2827C37.647 82.449 37.7 82.5273 34.3571 82.7622C32.8184 81.1179 32.2878 79.4997 30.7755 77.3334C23.1347 66.3977 23.8245 62.7437 17.9347 63.1613C18.8898 68.1985 22.1796 73.2358 24.3816 77.0463C28.0429 83.3625 27.7245 85.8942 36.6918 85.1895C35.6041 87.8777 33.4286 88.5041 30.2184 89C25.3367 84.798 20.2959 74.6191 16.2633 67.9636C13.9816 64.2053 11.7 63.0047 8.75511 58.3068C5.25307 52.7736 2.89184 54.4179 0 50.5029C4.96122 49.7982 4.58981 52.2255 9.04695 50.6595C13.1592 49.1979 11.1163 48.3367 17.7755 48.5194C58.1551 49.6156 43.749 45.8311 56.0326 43.7953C61.3122 42.9079 67.8653 50.6856 72.1367 45.0742C73.8082 42.5686 71.1286 40.1674 72.5347 35.0519C73.3041 32.2853 73.0388 27.2481 74.2061 24.6903C77.3102 17.8783 74.8163 17.5912 72.0572 13.9111C71.3408 12.9716 70.6775 11.6666 69.802 10.2833C74.1796 12.8411 75.9571 16.5733 79.8041 18.8962L87.5775 12.1103C88.0286 8.19531 86.5959 3.36686 87.8959 0.939591C90.0184 5.55924 86.8612 9.08271 92.0347 11.1446C93.7857 10.3616 93.0959 10.4921 93.8388 9.8135C93.9979 9.6569 94.1837 9.47419 94.3163 9.31759C94.4755 9.161 94.6878 8.9 94.8204 8.7695C94.9531 8.639 95.2449 8.53462 95.351 8.16922C95.4571 7.77773 95.6959 7.72551 95.8816 7.54281C97.2878 10.7792 98.0041 9.5786 101.931 8.53462L103.602 0Z" fill="#D1CAAF"/>
</svg>
