<svg width="90" height="72" viewBox="0 0 90 72" fill="none" xmlns="http://www.w3.org/2000/svg">
<path fill-rule="evenodd" clip-rule="evenodd" d="M86.3086 48.1067C87.2146 46.4829 87.1613 46.3765 88.5204 45.4448C88.5204 45.4448 91.3452 42.144 87.4012 39.4022C83.3506 35.995 78.314 42.3037 81.9915 44.4598C83.164 43.4483 82.6577 44.939 82.6577 41.3188C84.9228 40.0145 85.4558 40.5469 87.108 41.3188C87.2946 42.144 87.0814 43.5814 86.7616 44.1937C84.5498 48.1866 75.1428 46.9621 71.5452 46.3232C69.6532 45.9772 67.8411 46.0038 65.7625 45.6311L51.5055 42.6498C49.2137 41.9577 45.6694 40.9462 44.4436 38.6303C44.337 38.444 44.257 38.4173 44.1238 38.3375C42.4716 40.1742 44.7101 40.8663 42.3117 41.9044C41.4856 40.9461 41.6455 40.1742 40.9526 38.7101C39.6202 39.2958 39.4603 39.2425 39.1405 40.4138C36.5023 42.1973 34.7701 42.1972 31.6256 43.1289C31.3858 44.167 31.2525 43.2088 31.8121 44.7261C33.3844 45.7376 31.4657 44.593 32.0253 46.9088C33.1979 47.6009 33.6242 47.3613 34.93 48.1333C36.2624 48.9053 36.2624 48.8787 37.7548 49.5708C41.2191 51.1679 42.898 60.9105 41.1392 66.7134C39.6202 71.7977 44.1504 73.2085 46.6554 70.9725L50.4395 67.5919C50.4928 67.512 50.5461 67.4056 50.5994 67.3523L52.4115 64.5573C53.3442 64.0515 55.1297 62.1882 56.0624 61.1501C60.1929 56.5183 69.0403 54.8147 72.6112 56.7845C72.1848 58.4083 71.4919 58.9673 72.0249 60.7241C74.4766 60.2184 75.8623 57.9292 77.0082 58.8342C81.3519 60.0055 81.0055 63.7854 82.5778 67.0329C83.5371 69.2157 84.6031 69.2689 85.1893 68.1775C85.216 68.071 85.1627 67.8048 85.1893 67.8315L83.7236 61.4961C86.2819 60.9105 85.0827 65.7552 88.094 67.0861C90.5724 64.0515 82.9508 54.1226 86.3086 48.1067ZM50.5461 63.4127C49.6401 64.7703 48.201 66.7401 46.0691 66.8199C44.2037 63.5192 47.7747 55.773 43.6175 48.9851C41.8587 46.1103 40.4463 47.6542 40.5529 45.8441C40.6062 44.4332 39.8334 45.3649 41.4856 44.5663C43.4576 44.9124 43.5375 44.4332 45.4296 44.1404C47.4815 43.7944 47.5615 44.726 48.6541 44.4598C53.6107 49.9434 52.4915 60.458 50.5461 63.4127ZM43.884 28.728C44.6834 29.0208 45.3763 28.6481 45.2963 30.8309C45.243 32.082 43.8573 33.5993 46.8686 32.9338C48.8406 32.4813 49.4269 31.4963 51.6387 30.6179C54.0371 29.6596 56.1956 29.2071 57.5281 30.964C58.9671 32.8539 63.0976 41.2656 64.4834 42.357C66.2155 43.6879 68.3207 41.5052 68.8804 40.0411C69.7065 37.8849 68.987 36.2346 67.9743 33.4662C66.029 28.0891 67.6545 31.3632 65.6825 27.8761C65.1496 26.9178 64.43 25.7466 63.9237 24.7351C62.9644 22.712 63.2842 23.5638 64.1902 22.3393C63.1509 22.1264 63.0976 23.271 62.2715 21.2746C59.4201 14.4601 66.2421 13.6083 69.36 10.7334C70.2661 9.90821 73.837 3.12033 66.5619 2.58795C61.1523 2.18866 57.2349 5.06352 60.8325 8.89667L62.6979 8.3643C62.991 6.90024 62.4048 5.32974 64.4567 4.85059C65.949 4.50454 67.1749 5.24985 68.1342 6.1549C71.4919 11.4787 53.6906 15.2054 52.2516 15.7911L52.0118 15.0723C50.0931 15.9241 41.2724 16.1371 39.3004 15.7112C37.7548 15.3652 29.6536 13.1557 29.0673 12.5169C27.8948 12.4104 27.4684 12.3306 26.4025 11.9579C14.8636 7.91179 23.3645 9.16288 19.234 2.21528C15.4765 1.60304 16.3026 3.86567 15.9029 6.42111L14.1974 6.92688C14.304 5.22326 15.9295 4.02541 15.1034 1.6563C14.5438 0.0591549 14.5705 0.378557 13.4246 0.00588908C11.0262 -0.180445 11.266 4.10526 9.34734 5.72903C7.3487 7.40603 3.05827 7.40603 0.5 9.88161C1.61924 12.9162 2.15221 10.4672 9.9869 10.1478C13.7177 9.98806 16.2493 10.4672 18.2746 13.6349C21.8722 19.2516 21.0994 29.9524 15.6364 31.8956C14.9169 29.1006 18.0614 22.5789 16.276 17.0954C15.5565 14.8594 12.8383 12.3572 11.3193 11.9046C10.1468 11.5586 4.28411 12.7565 2.5253 13.2356C4.41735 16.0572 8.81436 14.6731 11.2127 16.6162C13.1048 18.1602 12.1987 19.5177 12.2787 21.7271C12.3586 23.7502 12.9183 24.8416 12.7051 27.0243L11.1061 36.5274C10.1468 41.1325 7.96162 40.0677 9.48059 46.2167C11.4792 46.6959 12.5985 48.1865 14.5971 45.7908C15.9296 44.167 15.5032 43.3685 16.9955 41.5051C20.6197 36.9799 19.234 30.5647 32.6382 29.4999L43.884 28.728ZM26.0294 21.4077C26.136 17.7875 28.3212 16.3767 31.519 17.0954C33.944 17.6278 37.6482 19.3847 39.7801 19.3314L39.7268 19.1717C40.9526 20.6623 41.9919 20.689 41.6455 22.9516C40.7394 25.5071 35.0366 24.602 32.7715 24.6286C30.1333 24.7085 25.8961 24.9214 26.0294 21.4077Z" fill="#D1554B"/>
</svg>
