<svg width="72" height="73" viewBox="0 0 72 73" fill="none" xmlns="http://www.w3.org/2000/svg">
<path fill-rule="evenodd" clip-rule="evenodd" d="M36.514 0C37.861 20.7571 7.97931 22.837 2.13058 37.8076C22.3707 33.7303 8.86547 29.1177 30.2045 26.5024C42.1855 38.3225 7.27034 47.1772 0.5 61.3653L31.6577 45.5709C31.7286 51.1515 29.3892 66.2251 23.9658 73H43.497C43.1071 70.1583 40.3068 58.6677 40.2714 53.6226C53.1385 57.4528 51.6498 64.4542 64.9069 68.6756C59.1999 56.9791 39.1016 47.136 42.6817 33.2773C57.4985 37.787 59.9089 50.1424 71.5 51.8104C70.5784 50.8838 56.0452 33.092 47.0062 18.1419C41.831 9.63729 46.191 0 36.514 0Z" fill="#868686"/>
</svg>
