<svg width="78" height="75" viewBox="0 0 78 75" fill="none" xmlns="http://www.w3.org/2000/svg">
<path fill-rule="evenodd" clip-rule="evenodd" d="M57.9951 34.073C64.2326 33.7042 64.2533 32.8742 67.2383 29.0037C69.9966 25.428 72.4032 24.4119 72.9498 21.3719C69.235 20.4516 55.4889 20.9794 52.0524 22.8402C51.0818 23.3626 47.2543 27.3354 46.1914 28.6658C45.1589 29.9532 45.1414 30.213 43.9361 31.7243C41.6336 34.6168 43.1478 31.5572 41.6783 34.7417L57.9951 34.073ZM42.174 37.765C43.5574 40.6796 42.5926 38.8091 45.9067 41.887C46.2703 42.2217 46.9327 42.9138 47.259 43.2471C48.9704 45.0022 51.3789 47.8899 54.3408 48.4048C57.0349 48.8717 74.626 48.3977 77.6097 47.7562C77.2964 46.8785 69.0928 37.5044 66.7365 36.7325C63.6623 35.7255 46.2599 37.2084 42.174 37.765ZM27.4665 74.0213C31.8009 72.6362 31.2087 71.7337 33.7136 68.6267C35.6135 66.2717 37.469 65.3857 37.7304 61.9388C38.0877 57.1888 36.7956 46.4647 36.4732 41.151C33.4896 42.3475 27.0276 49.8212 26.9309 53.8059C26.7708 60.1906 28.2778 67.7968 27.4665 74.0213ZM35.8063 32.2951C35.9821 28.5233 35.4008 14.8058 34.551 11.4697C33.9324 9.01989 26.6535 1.67625 23.5027 1.53257C23.3667 4.792 23.8891 19.6005 24.8395 22.0607C25.7708 24.4769 33.9276 31.3411 35.8063 32.2951ZM39.7586 41.7443C39.7067 67.9797 41.6715 59.932 47.2405 65.7529C49.1706 67.7726 50.4265 69.1121 52.4205 71.1618C52.3369 67.6228 52.0031 54.2357 51.1614 51.8629C50.5539 50.1513 42.7342 42.9034 39.7586 41.7443ZM0.9067 51.5834C6.77415 51.3264 19.5408 52.004 23.5616 49.2536C25.4307 47.9731 32.624 40.4749 33.0938 38.0882C28.8189 38.3223 12.9176 38.4639 10.1475 40.3227L0.9067 51.5834ZM38.3864 9.97905L38.9713 30.8779C41.869 29.0752 42.9654 27.7503 44.7033 25.7312C46.2124 23.9694 48.6986 21.5872 49.1399 19.6936C49.7347 17.112 48.8671 3.73026 48.3621 0.68874C44.7543 2.45466 45.6357 2.44754 43.3883 5.29181C41.6178 7.52661 40.0199 8.7049 38.3864 9.97905ZM1.47856 26.1498C3.47047 28.9946 3.79524 27.8503 6.91518 30.7972C14.8838 38.3213 12.7667 36.1514 32.7666 35.3887C30.5765 32.2068 30.5511 31.8521 27.373 29.3174C26.9342 28.9721 22.573 25.2773 21.8692 25.0002C18.5113 23.6799 5.33178 25.1644 1.47856 26.1498Z" fill="#4772A7"/>
</svg>
