<svg width="265" height="60" viewBox="0 0 265 60" fill="none" xmlns="http://www.w3.org/2000/svg">
<path d="M3.56848 56.8109C4.22706 56.9369 5.02468 56.9999 5.96134 56.9999C7.21997 56.9999 8.31029 56.7339 9.23231 56.2019C10.169 55.6699 10.8934 54.9209 11.4056 53.9548C11.9325 52.9748 12.1959 51.8198 12.1959 50.4897C12.2106 49.1737 11.9618 48.0257 11.4495 47.0456C10.9373 46.0656 10.2129 45.3096 9.27621 44.7776C8.33956 44.2455 7.24192 43.9865 5.98329 44.0005C5.23689 44.0005 4.60026 44.0425 4.0734 44.1265C3.54653 44.1965 3.0782 44.3015 2.66841 44.4416C2.27326 44.5816 1.87811 44.7636 1.48296 44.9876L1 47.4236L2.51474 47.7387L2.93185 45.9746C3.10747 45.8906 3.33432 45.8066 3.61239 45.7226C3.89045 45.6386 4.22706 45.5686 4.62222 45.5126C5.01737 45.4566 5.46374 45.4286 5.96134 45.4286C7.39559 45.4286 8.46396 45.8416 9.16645 46.6676C9.86894 47.4936 10.2495 48.6347 10.308 50.0907L6.64187 49.9437H4.40269V51.3928H6.57602L10.286 51.2458C10.1836 52.6038 9.77381 53.6678 9.05669 54.4379C8.33956 55.1939 7.30778 55.5719 5.96134 55.5719C5.50765 55.5719 5.08322 55.5439 4.68807 55.4879C4.30756 55.4319 3.97095 55.3689 3.67824 55.2989C3.38554 55.2149 3.13674 55.1449 2.93185 55.0889L2.5367 53.4508L1.04391 53.7868L1.59273 56.2229L2.09764 56.4329C2.43425 56.5589 2.92453 56.6849 3.56848 56.8109Z" fill="#E6B543"/>
<path fill-rule="evenodd" clip-rule="evenodd" d="M51.3026 44.0006C52.5173 44.0006 53.5711 44.2736 54.4638 44.8196C55.3712 45.3516 56.0737 46.1077 56.5713 47.0877C57.0835 48.0537 57.3396 49.1878 57.3396 50.4898C57.3396 51.7918 57.0835 52.9329 56.5713 53.9129C56.0737 54.8789 55.3712 55.635 54.4638 56.181C53.5711 56.727 52.5247 57 51.3246 57C50.1245 57 49.0708 56.727 48.1634 56.181C47.2706 55.635 46.5681 54.8789 46.0559 53.9129C45.5583 52.9329 45.3095 51.7918 45.3095 50.4898C45.3095 49.1878 45.5583 48.0537 46.0559 47.0877C46.5535 46.1077 47.2487 45.3516 48.1414 44.8196C49.0488 44.2736 50.1025 44.0006 51.3026 44.0006ZM51.3246 45.4706C50.022 45.4706 49.0049 45.9117 48.2731 46.7937C47.5414 47.6757 47.1755 48.9078 47.1755 50.4898C47.1755 52.0859 47.5414 53.3249 48.2731 54.2069C49.0049 55.0889 50.022 55.53 51.3246 55.53C52.6271 55.53 53.6443 55.0889 54.376 54.2069C55.1078 53.3249 55.4737 52.0859 55.4737 50.4898C55.4737 48.9078 55.1078 47.6757 54.376 46.7937C53.6443 45.9117 52.6271 45.4706 51.3246 45.4706Z" fill="#E6B543"/>
<path d="M73.4035 44.3156H60.0123V45.7647H62.0978L62.0758 55.236H59.9903V56.685H65.6322V55.236H63.7882L63.8321 45.7647H69.5837L69.5618 55.236H67.7177V56.685H73.3596V55.236H71.2741L71.318 45.7647H73.4035V44.3156Z" fill="#E6B543"/>
<path fill-rule="evenodd" clip-rule="evenodd" d="M75.3039 56.685V55.236H77.4114L81.0555 45.7647H78.8383V44.3156H83.0971L87.0706 55.236H89.1561V56.685H83.8216V55.236H85.2046L84.5021 53.3249H79.7603L79.0139 55.236H80.4189V56.685H75.3039ZM80.3091 51.8758H83.9753L82.241 46.4367L80.3091 51.8758Z" fill="#E6B543"/>
<path fill-rule="evenodd" clip-rule="evenodd" d="M100.47 45.3026C99.6502 44.6446 98.4574 44.3156 96.8915 44.3156H91.074V45.7647H93.1156V55.236H91.074V56.685H97.5061V55.236H94.8718V52.1069H96.8915C98.4574 52.1069 99.6502 51.7708 100.47 51.0988C101.304 50.4268 101.721 49.4538 101.721 48.1797C101.721 46.9197 101.304 45.9607 100.47 45.3026ZM99.8551 48.2007C99.8551 49.8248 98.8599 50.6368 96.8695 50.6368H94.8938V45.7647H96.8695C98.8599 45.7647 99.8551 46.5767 99.8551 48.2007Z" fill="#E6B543"/>
<path d="M109.053 44.3156H103.85V45.7647H105.914V55.236H103.85V56.685H109.053V55.236H107.67L107.648 51.1618H110.041L112.873 55.236H111.095V56.685H117V55.236H114.805L111.182 50.0698L114.497 45.7647H116.495V44.3156H111.095V45.7647H112.719L109.69 49.7128H107.648V45.7647H109.053V44.3156Z" fill="#E6B543"/>
<path d="M33.8969 44.3156H28.6282V45.7647H30.7357L30.7137 55.236H28.6062V56.685H33.853V55.236H32.448L32.4699 51.0778H38.7923V55.236H37.3874V56.685H42.6121V55.236H40.5047L40.5705 45.7647H42.656V44.3156H37.4093V45.7647H38.8143L38.7923 49.6288H32.4699L32.4919 45.7647H33.8969V44.3156Z" fill="#E6B543"/>
<path d="M14.8217 44.3156H26.1274V47.7597H24.459V45.7647H21.3637L21.3197 55.236H23.4053V56.685H17.478V55.236H19.5635L19.5855 45.7647H16.4901V47.7597H14.8217V44.3156Z" fill="#E6B543"/>
<path d="M257.4 37C259.373 37 260.88 37.4933 261.92 38.48C262.933 39.4933 263.573 40.68 263.84 42.04L261.08 42.48C260.973 41.68 260.627 41.0133 260.04 40.48C259.453 39.9466 258.573 39.68 257.4 39.68C256.2 39.68 255.307 39.9466 254.72 40.48C254.107 41.0133 253.747 41.68 253.64 42.48L250.92 42.04C251.16 40.68 251.8 39.4933 252.84 38.48C253.88 37.4933 255.4 37 257.4 37Z" fill="#E6B543"/>
<path d="M246.98 37C248.953 37 250.46 37.4933 251.5 38.48C252.513 39.4933 253.153 40.68 253.42 42.04L253.64 42.48L250.66 42.48C250.553 41.68 250.207 41.0133 249.62 40.48C249.033 39.9466 248.153 39.68 246.98 39.68C245.78 39.68 244.887 39.9467 244.3 40.48C243.687 41.0133 243.327 41.68 243.22 42.48L240.5 42.04C240.74 40.68 241.38 39.4933 242.42 38.48C243.46 37.4933 244.98 37 246.98 37Z" fill="#E6B543"/>
<path d="M236.48 37C238.453 37 239.96 37.4933 241 38.48C242.013 39.4933 242.653 40.68 242.92 42.04L243.22 42.48L240.16 42.48C240.053 41.68 239.707 41.0133 239.12 40.48C238.533 39.9467 237.653 39.68 236.48 39.68C235.28 39.68 234.387 39.9467 233.8 40.48C233.187 41.0133 232.827 41.68 232.72 42.48L230 42.04C230.24 40.68 230.88 39.4933 231.92 38.48C232.96 37.4933 234.48 37 236.48 37Z" fill="#E6B543"/>
<path fill-rule="evenodd" clip-rule="evenodd" d="M184.536 8.92C184.109 9.21333 183.562 9.50666 182.896 9.8C182.229 10.0933 181.482 10.3733 180.656 10.64C179.856 10.9067 179.042 11.1733 178.216 11.44C177.416 11.68 176.682 11.92 176.016 12.16C174.682 12.64 173.642 13.2267 172.896 13.92C172.176 14.6133 171.642 15.4667 171.296 16.48C170.976 17.4667 170.749 18.6667 170.616 20.08C170.882 19.3067 171.309 18.56 171.896 17.84C172.509 17.12 173.282 16.5333 174.216 16.08C175.176 15.6267 176.282 15.4 177.536 15.4C179.162 15.4 180.589 15.7467 181.816 16.44C183.069 17.1333 184.042 18.12 184.736 19.4C185.456 20.68 185.816 22.2133 185.816 24C185.816 25.8133 185.442 27.3733 184.696 28.68C183.949 29.9867 182.922 30.9867 181.616 31.68C180.336 32.3467 178.842 32.68 177.136 32.68C175.456 32.68 174.016 32.4 172.816 31.84C171.642 31.28 170.669 30.52 169.896 29.56C169.149 28.5733 168.602 27.4533 168.256 26.2C167.909 24.9467 167.736 23.64 167.736 22.28C167.736 20.68 167.816 19.1733 167.976 17.76C168.162 16.3467 168.509 15.0533 169.016 13.88C169.549 12.7067 170.296 11.68 171.256 10.8C172.242 9.89333 173.522 9.16 175.096 8.6C175.896 8.30667 176.789 8 177.776 7.68C178.789 7.33333 179.762 6.97333 180.696 6.6C181.656 6.22666 182.429 5.85333 183.016 5.48L184.536 8.92ZM177.296 18.64C173.882 18.64 172.176 20.4267 172.176 24C172.176 27.6 173.776 29.4 176.976 29.4C180.176 29.4 181.776 27.6 181.776 24C181.776 20.4267 180.282 18.64 177.296 18.64Z" fill="white"/>
<path fill-rule="evenodd" clip-rule="evenodd" d="M201.256 32C202.483 31.5466 203.656 30.8399 204.776 29.8799L203.256 27.44C202.456 28.1066 201.563 28.6133 200.576 28.9599C199.59 29.3066 198.523 29.4799 197.376 29.4799C196.39 29.4799 195.47 29.3066 194.616 28.9599C193.79 28.5866 193.096 28.0399 192.536 27.32C192.003 26.5733 191.696 25.6133 191.616 24.4399L205.216 24.4C205.27 24.08 205.31 23.7466 205.336 23.4C205.363 23.0533 205.376 22.7333 205.376 22.44C205.376 20.68 205.016 19.1466 204.296 17.84C203.603 16.5333 202.616 15.5199 201.336 14.7999C200.056 14.0533 198.536 13.6799 196.776 13.6799C194.99 13.6799 193.403 14.0799 192.016 14.8799C190.656 15.6799 189.603 16.7999 188.856 18.24C188.11 19.6533 187.736 21.3066 187.736 23.1999C187.736 25.1199 188.123 26.7999 188.896 28.24C189.696 29.6533 190.83 30.7466 192.296 31.52C193.763 32.2933 195.483 32.68 197.456 32.68C198.79 32.68 200.056 32.4533 201.256 32ZM200.136 18.1999C200.963 19.0533 201.376 20.1733 201.376 21.5599H191.696C191.83 20.1733 192.39 19.0533 193.376 18.1999C194.39 17.3199 195.55 16.8799 196.856 16.8799C198.243 16.8799 199.336 17.3199 200.136 18.1999Z" fill="white"/>
<path fill-rule="evenodd" clip-rule="evenodd" d="M206.217 40.5999V37.4399H209.577V18.1999L205.817 16.9599L206.857 13.6799L212.417 15.5999C213.27 15.0133 214.19 14.5466 215.177 14.1999C216.164 13.8533 217.084 13.6799 217.937 13.6799C220.684 13.6799 222.83 14.5066 224.377 16.16C225.95 17.7866 226.737 20.0266 226.737 22.8799C226.737 24.8266 226.364 26.5466 225.617 28.0399C224.87 29.5333 223.804 30.6933 222.417 31.52C221.057 32.32 219.444 32.72 217.577 32.72C216.164 32.72 214.844 32.5333 213.617 32.16V37.4399H216.977V40.5999H206.217ZM217.537 29.4799C219.137 29.4799 220.39 28.9066 221.297 27.76C222.204 26.6133 222.657 25 222.657 22.92C222.657 20.9733 222.244 19.4933 221.417 18.4799C220.59 17.4666 219.377 16.9599 217.777 16.9599C217.004 16.9599 216.23 17.0933 215.457 17.3599C214.684 17.6266 214.057 17.9866 213.577 18.4399V28.68C214.03 28.92 214.617 29.12 215.337 29.28C216.084 29.4133 216.817 29.4799 217.537 29.4799Z" fill="white"/>
<path fill-rule="evenodd" clip-rule="evenodd" d="M242.138 32C243.364 31.5466 244.538 30.8399 245.658 29.8799L244.138 27.44C243.338 28.1066 242.444 28.6133 241.458 28.9599C240.471 29.3066 239.404 29.4799 238.258 29.4799C237.271 29.4799 236.351 29.3066 235.498 28.9599C234.671 28.5866 233.978 28.0399 233.418 27.32C232.884 26.5733 232.578 25.6133 232.498 24.4399L246.098 24.4C246.151 24.08 246.191 23.7466 246.218 23.4C246.244 23.0533 246.258 22.7333 246.258 22.44C246.258 20.68 245.898 19.1466 245.178 17.84C244.484 16.5333 243.498 15.5199 242.218 14.7999C240.938 14.0533 239.418 13.6799 237.658 13.6799C235.871 13.6799 234.284 14.0799 232.898 14.8799C231.538 15.6799 230.484 16.7999 229.738 18.24C228.991 19.6533 228.618 21.3066 228.618 23.1999C228.618 25.1199 229.004 26.7999 229.778 28.24C230.578 29.6533 231.711 30.7466 233.178 31.52C234.644 32.2933 236.364 32.68 238.338 32.68C239.671 32.68 240.938 32.4533 242.138 32ZM241.018 18.1999C241.844 19.0533 242.258 20.1733 242.258 21.5599H232.578C232.711 20.1733 233.271 19.0533 234.258 18.1999C235.271 17.3199 236.431 16.8799 237.738 16.8799C239.124 16.8799 240.218 17.3199 241.018 18.1999Z" fill="white"/>
<path d="M263.219 14.36H247.698V17.52H251.138V28.8H247.698V32H259.618V28.8H255.178V17.52H260.258L261.178 21.24L264.618 20.44L263.219 14.36Z" fill="white"/>
<path d="M143.315 14.36H134.195V17.56H137.555V28.8H134.195V32H141.395L149.515 19.12V28.8H147.595V32H156.715V28.8H153.315V17.56H156.715V14.36L149.515 14.4L141.395 27.12V17.56H143.315V14.36Z" fill="white"/>
<path d="M109.302 14.36H118.422V17.56H116.502V27.12L124.622 14.4L131.822 14.36V17.56H128.422V28.8H131.822V32H122.702V28.8H124.622V19.12L116.502 32H109.302V28.8H112.662V17.56H109.302V14.36Z" fill="white"/>
<path d="M95.4755 14.4H86.5955V17.56H89.9555V28.8H86.5955V32H95.4755V28.8H93.9555V24.92H96.8755L101.595 32H107.315V28.8H103.955L100.155 23.16L103.955 17.56H107.115V14.4H97.9155V17.56H99.9555L97.2355 21.72H93.9555V17.56H95.4755V14.4Z" fill="white"/>
<path d="M80.6223 17.24C80.1157 17.0534 79.6223 16.9334 79.1423 16.88C78.6623 16.8 78.1557 16.76 77.6223 16.76C75.9157 16.76 74.5823 17.3067 73.6223 18.4C72.689 19.4934 72.2223 21.12 72.2223 23.28C72.2223 25.2534 72.729 26.7734 73.7423 27.84C74.7823 28.88 76.049 29.4 77.5423 29.4C78.3957 29.4 79.2757 29.2534 80.1823 28.96C81.089 28.64 81.9823 28.1734 82.8623 27.56L84.5023 30C83.7557 30.56 83.0357 31.04 82.3423 31.44C81.649 31.84 80.9023 32.1467 80.1023 32.36C79.329 32.5734 78.3957 32.68 77.3023 32.68C75.4623 32.68 73.849 32.32 72.4623 31.6C71.0757 30.8534 70.009 29.7734 69.2623 28.36C68.5157 26.9467 68.1423 25.2534 68.1423 23.28C68.1423 21.1734 68.529 19.4134 69.3023 18C70.0757 16.56 71.169 15.48 72.5823 14.76C74.0223 14.0134 75.689 13.64 77.5823 13.64C78.649 13.64 79.6623 13.7467 80.6223 13.96C81.609 14.1734 82.649 14.4534 83.7423 14.8L84.5423 19.68L81.1823 20.4L80.6223 17.24Z" fill="white"/>
<path d="M66.7535 14.36H44.0735V17.56H47.4335V28.8H44.0735V32H53.3535V28.8H51.4735V17.56H59.3535V28.8H57.4335V32H66.7535V28.8H63.3535V17.56H66.7535V14.36Z" fill="white"/>
<path fill-rule="evenodd" clip-rule="evenodd" d="M33.3751 13.6799C35.2951 13.6799 36.9351 14.0666 38.2951 14.84C39.6818 15.5866 40.7485 16.6799 41.4951 18.1199C42.2418 19.5333 42.6151 21.24 42.6151 23.24C42.6151 26.2 41.7885 28.52 40.1351 30.2C38.4818 31.8533 36.2285 32.68 33.3751 32.68C31.5085 32.68 29.8818 32.3066 28.4951 31.5599C27.1351 30.8133 26.0818 29.7333 25.3351 28.32C24.6151 26.8799 24.2551 25.1866 24.2551 23.24C24.2551 21.24 24.6151 19.5333 25.3351 18.1199C26.0818 16.6799 27.1351 15.5866 28.4951 14.84C29.8818 14.0666 31.5085 13.6799 33.3751 13.6799ZM33.3751 16.9599C31.6951 16.9599 30.4151 17.5066 29.5351 18.6C28.6818 19.6666 28.2551 21.2133 28.2551 23.24C28.2551 25.24 28.6818 26.7733 29.5351 27.84C30.4151 28.9066 31.6951 29.44 33.3751 29.44C35.1351 29.44 36.4418 28.9066 37.2951 27.84C38.1751 26.7733 38.6151 25.24 38.6151 23.24C38.6151 21.2133 38.1751 19.6666 37.2951 18.6C36.4418 17.5066 35.1351 16.9599 33.3751 16.9599Z" fill="white"/>
<path d="M13.465 28.8V32H22.7451V28.8H19.1451V17.56H22.705V14.36H3.54505V17.56H6.9427L6.70505 21.6C6.62505 23.2 6.42505 24.5867 6.10505 25.76C5.81172 26.9333 5.30505 27.8133 4.58505 28.4C3.86505 28.96 2.81172 29.1733 1.42505 29.04V32.28C3.39838 32.4933 4.99838 32.2267 6.22505 31.48C7.45172 30.7067 8.37172 29.5467 8.98505 28C9.59838 26.4533 9.97172 24.6533 10.105 22.6L10.4551 17.56H15.1451V28.8H13.465Z" fill="white"/>
<path d="M135.44 9.48C133.467 9.48 131.96 8.98667 130.92 8C129.907 6.98667 129.267 5.8 129 4.44L131.76 4C131.867 4.8 132.213 5.46666 132.8 6C133.387 6.53333 134.267 6.8 135.44 6.8C136.64 6.8 137.533 6.53333 138.12 6C138.733 5.46666 139.093 4.8 139.2 4L141.92 4.44C141.68 5.8 141.04 6.98667 140 8C138.96 8.98667 137.44 9.48 135.44 9.48Z" fill="white"/>
<path d="M145.86 9.48C143.887 9.48 142.38 8.98667 141.34 8C140.327 6.98667 139.687 5.8 139.42 4.44L139.2 4H142.18C142.287 4.8 142.634 5.46666 143.22 6C143.807 6.53333 144.687 6.8 145.86 6.8C147.06 6.8 147.954 6.53333 148.54 6C149.154 5.46666 149.514 4.8 149.62 4L152.34 4.44C152.1 5.8 151.46 6.98667 150.42 8C149.38 8.98667 147.86 9.48 145.86 9.48Z" fill="white"/>
<path d="M156.36 9.48C154.387 9.48 152.88 8.98667 151.84 8C150.827 6.98667 150.187 5.8 149.92 4.44L149.62 4H152.68C152.787 4.8 153.134 5.46666 153.72 6C154.307 6.53333 155.187 6.8 156.36 6.8C157.56 6.8 158.454 6.53333 159.04 6C159.654 5.46666 160.014 4.8 160.12 4L162.84 4.44C162.6 5.8 161.96 6.98667 160.92 8C159.88 8.98667 158.36 9.48 156.36 9.48Z" fill="white"/>
</svg>
