<svg id="Слой_1" data-name="Слой 1" xmlns="http://www.w3.org/2000/svg" viewBox="0 0 1320 38.08"><defs><style>.cls-1{fill:#974d46;fill-rule:evenodd;}.cls-2{fill:none;}</style></defs><title>pattern</title><path class="cls-1" d="M30.4,1,8.59,34.07,2.28,24.5,0,26.05l8.59,13L32.68,2.55Z" transform="translate(0 -1)"/><path class="cls-1" d="M12.31,2.55l24.1,36.53,8.59-13L42.72,24.5l-6.31,9.57L14.6,1Z" transform="translate(0 -1)"/><path class="cls-1" d="M90.4,1,68.59,34.07,62.28,24.5,60,26.05l8.59,13L92.68,2.55Z" transform="translate(0 -1)"/><path class="cls-1" d="M72.31,2.55l24.1,36.53,8.59-13-2.28-1.55-6.31,9.57L74.6,1Z" transform="translate(0 -1)"/><path class="cls-1" d="M150.4,1,128.59,34.07l-6.31-9.57L120,26.05l8.59,13L152.68,2.55Z" transform="translate(0 -1)"/><path class="cls-1" d="M132.31,2.55l24.1,36.53,8.59-13-2.29-1.55-6.3,9.57L134.6,1Z" transform="translate(0 -1)"/><path class="cls-1" d="M210.4,1,188.59,34.07l-6.31-9.57L180,26.05l8.59,13L212.68,2.55Z" transform="translate(0 -1)"/><path class="cls-1" d="M192.31,2.55l24.1,36.53,8.59-13-2.29-1.55-6.3,9.57L194.6,1Z" transform="translate(0 -1)"/><path class="cls-1" d="M270.4,1,248.59,34.07l-6.31-9.57L240,26.05l8.59,13L272.68,2.55Z" transform="translate(0 -1)"/><path class="cls-1" d="M252.31,2.55l24.1,36.53,8.59-13-2.29-1.55-6.3,9.57L254.6,1Z" transform="translate(0 -1)"/><path class="cls-1" d="M330.4,1,308.59,34.07l-6.31-9.57L300,26.05l8.59,13L332.68,2.55Z" transform="translate(0 -1)"/><path class="cls-1" d="M312.31,2.55l24.1,36.53,8.59-13-2.29-1.55-6.3,9.57L314.6,1Z" transform="translate(0 -1)"/><path class="cls-1" d="M390.4,1,368.59,34.07l-6.31-9.57L360,26.05l8.59,13L392.68,2.55Z" transform="translate(0 -1)"/><path class="cls-1" d="M372.31,2.55l24.1,36.53,8.59-13-2.29-1.55-6.3,9.57L374.6,1Z" transform="translate(0 -1)"/><path class="cls-1" d="M450.4,1,428.59,34.07l-6.31-9.57L420,26.05l8.59,13L452.68,2.55Z" transform="translate(0 -1)"/><path class="cls-1" d="M432.31,2.55l24.1,36.53,8.59-13-2.29-1.55-6.3,9.57L434.6,1Z" transform="translate(0 -1)"/><path class="cls-1" d="M510.4,1,488.59,34.07l-6.31-9.57L480,26.05l8.59,13L512.68,2.55Z" transform="translate(0 -1)"/><path class="cls-1" d="M492.31,2.55l24.1,36.53,8.59-13-2.28-1.55-6.31,9.57L494.6,1Z" transform="translate(0 -1)"/><path class="cls-1" d="M570.4,1,548.59,34.07l-6.31-9.57L540,26.05l8.59,13L572.68,2.55Z" transform="translate(0 -1)"/><path class="cls-1" d="M552.31,2.55l24.1,36.53,8.59-13-2.28-1.55-6.31,9.57L554.6,1Z" transform="translate(0 -1)"/><path class="cls-1" d="M630.4,1,608.59,34.07l-6.31-9.57L600,26.05l8.59,13L632.68,2.55Z" transform="translate(0 -1)"/><path class="cls-1" d="M612.31,2.55l24.1,36.53,8.59-13-2.28-1.55-6.31,9.57L614.6,1Z" transform="translate(0 -1)"/><path class="cls-1" d="M690.4,1,668.59,34.07l-6.31-9.57L660,26.05l8.59,13L692.68,2.55Z" transform="translate(0 -1)"/><path class="cls-1" d="M672.31,2.55l24.1,36.53,8.59-13-2.28-1.55-6.31,9.57L674.6,1Z" transform="translate(0 -1)"/><path class="cls-1" d="M750.4,1,728.59,34.07l-6.31-9.57L720,26.05l8.59,13L752.68,2.55Z" transform="translate(0 -1)"/><path class="cls-1" d="M732.31,2.55l24.1,36.53,8.59-13-2.28-1.55-6.31,9.57L734.6,1Z" transform="translate(0 -1)"/><path class="cls-1" d="M810.4,1,788.59,34.07l-6.31-9.57L780,26.05l8.59,13L812.68,2.55Z" transform="translate(0 -1)"/><path class="cls-1" d="M792.31,2.55l24.1,36.53,8.59-13-2.28-1.55-6.31,9.57L794.6,1Z" transform="translate(0 -1)"/><path class="cls-1" d="M870.4,1,848.59,34.07l-6.31-9.57L840,26.05l8.59,13L872.68,2.55Z" transform="translate(0 -1)"/><path class="cls-1" d="M852.31,2.55l24.1,36.53,8.59-13-2.28-1.55-6.31,9.57L854.6,1Z" transform="translate(0 -1)"/><path class="cls-1" d="M930.4,1,908.59,34.07l-6.31-9.57L900,26.05l8.59,13L932.68,2.55Z" transform="translate(0 -1)"/><path class="cls-1" d="M912.31,2.55l24.1,36.53,8.59-13-2.28-1.55-6.31,9.57L914.6,1Z" transform="translate(0 -1)"/><path class="cls-1" d="M990.4,1,968.59,34.07l-6.31-9.57L960,26.05l8.59,13L992.68,2.55Z" transform="translate(0 -1)"/><path class="cls-1" d="M972.31,2.55l24.1,36.53,8.59-13-2.28-1.55-6.31,9.57L974.6,1Z" transform="translate(0 -1)"/><path class="cls-1" d="M1050.4,1l-21.81,33.07-6.31-9.57L1020,26.05l8.59,13,24.1-36.53Z" transform="translate(0 -1)"/><path class="cls-1" d="M1032.31,2.55l24.1,36.53,8.59-13-2.28-1.55-6.31,9.57L1034.6,1Z" transform="translate(0 -1)"/><path class="cls-1" d="M1110.4,1l-21.81,33.07-6.31-9.57L1080,26.05l8.59,13,24.1-36.53Z" transform="translate(0 -1)"/><path class="cls-1" d="M1092.31,2.55l24.1,36.53,8.59-13-2.28-1.55-6.31,9.57L1094.6,1Z" transform="translate(0 -1)"/><path class="cls-1" d="M1170.4,1l-21.81,33.07-6.31-9.57L1140,26.05l8.59,13,24.1-36.53Z" transform="translate(0 -1)"/><path class="cls-1" d="M1152.31,2.55l24.1,36.53,8.59-13-2.28-1.55-6.31,9.57L1154.6,1Z" transform="translate(0 -1)"/><path class="cls-1" d="M1230.4,1l-21.81,33.07-6.31-9.57L1200,26.05l8.59,13,24.1-36.53Z" transform="translate(0 -1)"/><path class="cls-1" d="M1212.31,2.55l24.1,36.53,8.59-13-2.28-1.55-6.31,9.57L1214.6,1Z" transform="translate(0 -1)"/><path class="cls-1" d="M1290.4,1l-21.81,33.07-6.31-9.57L1260,26.05l8.59,13,24.1-36.53Z" transform="translate(0 -1)"/><path class="cls-1" d="M1272.31,2.55l24.1,36.53,8.59-13-2.28-1.55-6.31,9.57L1274.6,1Z" transform="translate(0 -1)"/><rect class="cls-2" x="1305" y="25.05" width="15" height="1.86"/></svg>