<svg width="95" height="159" viewBox="0 0 95 159" fill="none" xmlns="http://www.w3.org/2000/svg">
<path d="M68.9981 69.6566C66.0398 63.102 63.0815 56.5187 60.1522 49.9354C55.8018 40.1611 51.4223 30.358 47.0718 20.8998C42.6634 30.5017 38.2549 40.391 33.8755 50.2229C30.5401 57.6974 27.2048 65.1431 23.8405 72.5889C35.0066 77.1598 43.0985 74.9175 48.725 72.4739C55.5408 69.6566 62.7045 69.1391 68.9981 69.6566ZM13.6604 92.9138L0 92.9425C14.5595 61.9521 29.1189 30.9617 43.7075 0H50.1462C64.8507 31.0192 79.6133 62.0096 94.3469 93L79.7002 92.9138L79.3812 92.2525C78.0761 89.5215 76.7999 86.7617 75.5238 84.0306C73.3776 83.0819 70.3033 82.1045 66.0399 81.7308C62.0084 81.3858 57.4259 81.9895 53.9456 83.4844C45.7377 87.0491 34.6296 91.4189 18.4749 84.2031C17.2277 86.8767 15.9806 89.5502 14.7044 92.2525L14.3854 92.9425L13.6604 92.9138Z" fill="#809AB2"/>
<path opacity="0.25" d="M68.7804 109.566C65.9171 114.218 63.0539 118.89 60.2188 123.562C56.0081 130.499 51.7694 137.456 47.5588 144.168C43.2921 137.354 39.0253 130.335 34.7866 123.358C31.5585 118.053 28.3304 112.769 25.0742 107.485C35.8814 104.241 43.7132 105.833 49.1589 107.567C55.7555 109.566 62.689 109.934 68.7804 109.566ZM15.2213 93.0612L2 93.0408C16.0915 115.034 30.183 137.027 44.3026 159H50.5343C64.7662 136.986 79.0544 114.993 93.3143 93L79.1385 93.0612L78.8297 93.5305C77.5665 95.4686 76.3314 97.4272 75.0963 99.3654C73.019 100.039 70.0436 100.732 65.9172 100.998C62.0153 101.242 57.5801 100.814 54.2116 99.753C46.2676 97.2232 35.5165 94.1221 19.881 99.243C18.674 97.3456 17.4669 95.4482 16.2318 93.5305L15.9231 93.0408L15.2213 93.0612Z" fill="white"/>
</svg>
