<svg width="20" height="21" viewBox="0 0 20 21" fill="none" xmlns="http://www.w3.org/2000/svg">
<g clip-path="url(#clip0)">
<path d="M18.75 9.58748H2.08332V1.8901C2.08332 1.36964 2.525 0.913079 3.02914 0.913079H4.77082C5.2625 0.913079 5.65832 1.35136 5.6625 1.88552C4.85 2.10924 4.16668 2.93103 4.16668 3.79844V5.022C4.16668 5.27311 4.35418 5.47856 4.58336 5.47856H7.5C7.72918 5.47856 7.91668 5.27311 7.91668 5.022V3.79848C7.91668 2.91733 7.27918 2.10924 6.49586 1.8901C6.49586 0.849176 5.72504 0 4.77086 0H3.02918C2.06668 0 1.25 0.867453 1.25 1.8901V9.58748C0.5625 9.5829 0.00417969 10.1947 0 10.948C0 11.3406 0.15 11.7104 0.41668 11.9706V14.3629C0.41668 16.2211 1.17086 17.8144 2.39168 18.8508L1.70836 20.3391C1.60418 20.5628 1.68754 20.8368 1.89586 20.9509C2.10004 21.065 2.35004 20.9737 2.45418 20.7454L3.09586 19.3438C3.93754 19.8369 4.87918 20.0925 5.83336 20.0834H14.1667C15.1209 20.0925 16.0625 19.8369 16.9042 19.3438L17.5459 20.7454C17.65 20.9691 17.9 21.0604 18.1042 20.9509C18.3084 20.8413 18.3917 20.5628 18.2917 20.3391L17.6084 18.8462C18.8292 17.8144 19.5834 16.2165 19.5834 14.3584V11.9661C19.8459 11.715 20 11.3451 20 10.9571C20 10.1993 19.4417 9.58748 18.75 9.58748ZM6.07918 2.73928C6.575 2.73928 7.08336 3.27344 7.08336 3.79848V4.56548H5V3.79848C5 3.29171 5.5625 2.73928 6.07918 2.73928ZM18.75 14.363C18.75 17.1068 16.7792 19.175 14.1667 19.175H5.83332C3.22082 19.175 1.25 17.1068 1.25 14.363L1.26 11.41H10.01H18.75V14.363ZM18.75 11.4137H10.0063H1.2625C1.05418 11.4137 0.86668 11.2493 0.8375 11.0256C0.8 10.7426 1 10.5006 1.25 10.5006H18.7375C18.9458 10.5006 19.1333 10.6649 19.1625 10.8886C19.2 11.1717 19 11.4137 18.75 11.4137Z" fill="#A62318"/>
</g>
<defs>
<clipPath id="clip0">
<rect width="20" height="21" fill="white"/>
</clipPath>
</defs>
</svg>
