<svg width="20" height="21" viewBox="0 0 20 21" fill="none" xmlns="http://www.w3.org/2000/svg">
<path d="M19.1667 10.8V8.40013C19.1667 6.5762 18.35 5.4003 17.0834 5.4003H7.5C6.23332 5.4003 5.41668 6.57626 5.41668 8.40013V10.7812L1.3625 10.794H0.83332V2.6185C0.83332 2.31854 0.68332 2.04855 0.479141 2.00653C0.22082 1.95254 0 2.24052 0 2.6005V20.3815C0 20.6815 0.15 20.9514 0.35418 20.9935C0.6125 21.0475 0.833359 20.7595 0.833359 20.3995V16.7997H19.1667V20.3815C19.1667 20.6815 19.3167 20.9514 19.5209 20.9935C19.7792 21.0475 20 20.7595 20 20.3995V11.9999C20 11.184 19.7333 10.806 19.1667 10.8ZM6.25 8.40013C6.25 6.83421 7.03332 6.60022 7.5 6.60022H17.0833C17.55 6.60022 18.3333 6.83421 18.3333 8.40013V10.8H6.25V8.40013ZM19.1666 15.5998H0.83332V11.9999H19.1666V15.5998Z" fill="#A62318"/>
<path d="M3 6C1.61928 6 0.5 7.11928 0.5 8.5C0.5 9.88072 1.61928 11 3 11C4.38072 11 5.5 9.88072 5.5 8.5C5.5 7.11928 4.38072 6 3 6ZM3 10.1983C2.06207 10.1983 1.30169 9.43793 1.30169 8.5C1.30169 7.56207 2.06207 6.80169 3 6.80169C3.93793 6.80169 4.69831 7.56207 4.69831 8.5C4.69831 9.43793 3.93797 10.1983 3 10.1983Z" fill="#A62318"/>
</svg>
