<svg width="17" height="16" viewBox="0 0 17 16" fill="none" xmlns="http://www.w3.org/2000/svg">
<rect x="0.5" y="2.5" width="16" height="13" rx="1.5" stroke="#828282"/>
<rect x="4" width="1" height="4" rx="0.5" fill="#828282"/>
<rect x="12" width="1" height="4" rx="0.5" fill="#828282"/>
<rect x="2.5" y="5.5" width="12" height="8" stroke="#828282"/>
<rect x="6.25" y="7.25" width="0.5" height="0.5" stroke="#828282" stroke-width="0.5"/>
<rect x="8.25" y="7.25" width="0.5" height="0.5" stroke="#828282" stroke-width="0.5"/>
<rect x="10.25" y="7.25" width="0.5" height="0.5" stroke="#828282" stroke-width="0.5"/>
<rect x="12.25" y="7.25" width="0.5" height="0.5" stroke="#828282" stroke-width="0.5"/>
<rect x="4.25" y="9.25" width="0.5" height="0.5" stroke="#828282" stroke-width="0.5"/>
<rect x="6.25" y="9.25" width="0.5" height="0.5" stroke="#828282" stroke-width="0.5"/>
<rect x="10.25" y="9.25" width="0.5" height="0.5" stroke="#828282" stroke-width="0.5"/>
<rect x="8.25" y="9.25" width="0.5" height="0.5" stroke="#828282" stroke-width="0.5"/>
<rect x="12.25" y="9.25" width="0.5" height="0.5" stroke="#828282" stroke-width="0.5"/>
<rect x="4.25" y="11.25" width="0.5" height="0.5" stroke="#828282" stroke-width="0.5"/>
<rect x="6.25" y="11.25" width="0.5" height="0.5" stroke="#828282" stroke-width="0.5"/>
<rect x="8.25" y="11.25" width="0.5" height="0.5" stroke="#828282" stroke-width="0.5"/>
<rect x="10.25" y="11.25" width="0.5" height="0.5" stroke="#828282" stroke-width="0.5"/>
</svg>
