<svg width="20" height="21" viewBox="0 0 20 21" fill="none" xmlns="http://www.w3.org/2000/svg">
<path d="M13.86 3.15002C14.4381 3.14991 14.9983 3.36014 15.4454 3.74494C15.8925 4.12974 16.1987 4.66532 16.312 5.26052L16.509 6.30002H17.25C17.4312 6.30003 17.6063 6.36895 17.7429 6.49403C17.8795 6.61911 17.9684 6.79189 17.993 6.98042L18 7.08752C18 7.27782 17.9344 7.46168 17.8152 7.6051C17.6961 7.74852 17.5316 7.84179 17.352 7.86767L17.25 7.87502H16.809L16.921 8.46302C17.2324 8.55863 17.5059 8.75767 17.7004 9.03028C17.8949 9.30289 18.0001 9.63438 18 9.97502V15.225C18 15.6427 17.842 16.0433 17.5607 16.3387C17.2794 16.6341 16.8978 16.8 16.5 16.8H16V17.85C16 18.1285 15.8946 18.3956 15.7071 18.5925C15.5196 18.7894 15.2652 18.9 15 18.9C14.7348 18.9 14.4804 18.7894 14.2929 18.5925C14.1054 18.3956 14 18.1285 14 17.85V16.8H6V17.85C6 18.1285 5.89464 18.3956 5.70711 18.5925C5.51957 18.7894 5.26522 18.9 5 18.9C4.73478 18.9 4.48043 18.7894 4.29289 18.5925C4.10536 18.3956 4 18.1285 4 17.85V16.8H3.5C3.10218 16.8 2.72064 16.6341 2.43934 16.3387C2.15804 16.0433 2 15.6427 2 15.225V9.97502C1.99994 9.63438 2.10506 9.30289 2.2996 9.03028C2.49414 8.75767 2.76761 8.55863 3.079 8.46302L3.19 7.87502H2.75C2.55109 7.87502 2.36032 7.79206 2.21967 7.64437C2.07902 7.49669 2 7.29638 2 7.08752C2 6.87867 2.07902 6.67836 2.21967 6.53068C2.36032 6.38299 2.55109 6.30002 2.75 6.30002H3.49L3.688 5.26052C3.8013 4.66532 4.10755 4.12974 4.55461 3.74494C5.00168 3.36014 5.56193 3.14991 6.14 3.15002H13.86ZM16.5 9.45002H3.5C3.36739 9.45002 3.24021 9.50534 3.14645 9.60379C3.05268 9.70225 3 9.83579 3 9.97502V15.225C3 15.3643 3.05268 15.4978 3.14645 15.5963C3.24021 15.6947 3.36739 15.75 3.5 15.75H16.5C16.6326 15.75 16.7598 15.6947 16.8536 15.5963C16.9473 15.4978 17 15.3643 17 15.225V9.97502C17 9.83579 16.9473 9.70225 16.8536 9.60379C16.7598 9.50534 16.6326 9.45002 16.5 9.45002ZM6 11.55C6.26522 11.55 6.51957 11.6606 6.70711 11.8576C6.89464 12.0545 7 12.3215 7 12.6C7 12.8785 6.89464 13.1456 6.70711 13.3425C6.51957 13.5394 6.26522 13.65 6 13.65C5.73478 13.65 5.48043 13.5394 5.29289 13.3425C5.10536 13.1456 5 12.8785 5 12.6C5 12.3215 5.10536 12.0545 5.29289 11.8576C5.48043 11.6606 5.73478 11.55 6 11.55ZM14 11.55C14.2652 11.55 14.5196 11.6606 14.7071 11.8576C14.8946 12.0545 15 12.3215 15 12.6C15 12.8785 14.8946 13.1456 14.7071 13.3425C14.5196 13.5394 14.2652 13.65 14 13.65C13.7348 13.65 13.4804 13.5394 13.2929 13.3425C13.1054 13.1456 13 12.8785 13 12.6C13 12.3215 13.1054 12.0545 13.2929 11.8576C13.4804 11.6606 13.7348 11.55 14 11.55ZM13.86 4.20002H6.14C5.79319 4.2 5.45709 4.32616 5.18889 4.55704C4.92069 4.78791 4.73697 5.10924 4.669 5.46632L4.109 8.40002H15.89L15.331 5.46632C15.2631 5.10941 15.0795 4.78823 14.8115 4.55737C14.5435 4.32652 14.2076 4.20024 13.861 4.20002H13.86Z" fill="#A62318"/>
</svg>
