<svg width="17" height="14" viewBox="0 0 17 14" fill="none" xmlns="http://www.w3.org/2000/svg">
<path d="M2.51136 5.38992e-09H14.4886C15.1301 -4.19952e-05 15.7473 0.245383 16.2135 0.685928C16.6798 1.12647 16.9598 1.72874 16.9961 2.36918L17 2.51136V11.3977C17 12.0392 16.7546 12.6564 16.3141 13.1226C15.8735 13.5889 15.2713 13.8689 14.6308 13.9052L14.4886 13.9091H2.51136C1.86989 13.9091 1.25272 13.6637 0.786458 13.2232C0.320193 12.7826 0.0401808 12.1804 0.00386373 11.5399L5.38991e-09 11.3977V2.51136C-4.19952e-05 1.86989 0.245383 1.25272 0.685928 0.786458C1.12647 0.320193 1.72874 0.0401808 2.36918 0.00386373L2.51136 5.38992e-09H14.4886H2.51136ZM15.8409 4.56295L8.76736 8.24114C8.69884 8.27674 8.6239 8.2983 8.54694 8.30453C8.46997 8.31077 8.39254 8.30156 8.31918 8.27745L8.23264 8.24114L1.15909 4.56295V11.3977C1.1591 11.7371 1.28672 12.0641 1.51662 12.3137C1.74651 12.5634 2.06187 12.7174 2.40009 12.7454L2.51136 12.75H14.4886C14.8281 12.75 15.1552 12.6222 15.4049 12.3922C15.6545 12.1621 15.8085 11.8466 15.8363 11.5082L15.8409 11.3977V4.56295ZM14.4886 1.15909H2.51136C2.17199 1.1591 1.84503 1.28672 1.59538 1.51662C1.34573 1.74651 1.19165 2.06187 1.16373 2.40009L1.15909 2.51136V3.25627L8.5 7.07355L15.8409 3.25627V2.51136C15.8409 2.17187 15.7132 1.8448 15.4831 1.59513C15.253 1.34547 14.9375 1.19147 14.5991 1.16373L14.4886 1.15909Z" fill="#A62318"/>
</svg>
