<svg width="20" height="21" viewBox="0 0 20 21" fill="none" xmlns="http://www.w3.org/2000/svg">
<g clip-path="url(#clip0)">
<path fill-rule="evenodd" clip-rule="evenodd" d="M19.0936 1.48153C19.5935 1.48153 20 1.94927 20 2.52446V4.74938C20 5.02135 19.9089 5.26909 19.7603 5.45503C19.9089 5.64079 20 5.88871 20 6.16068V19.9061C20 20.4812 19.5934 20.9491 19.0936 20.9491H19.0007H18.4145H1.58554H0.999298H0.906372C0.406494 20.9491 0 20.4812 0 19.9061V6.16068C0 5.88871 0.0909424 5.64079 0.239716 5.45503C0.0909424 5.26909 0 5.02135 0 4.74938V2.52446C0 1.94927 0.406494 1.48153 0.906372 1.48153H2.85828V0.8052C2.85828 0.361339 3.17215 0 3.55804 0H7.58499C7.97089 0 8.28491 0.361164 8.28491 0.8052V1.48153H11.7152V0.8052C11.7152 0.361339 12.0291 0 12.415 0H16.442C16.8279 0 17.1417 0.361164 17.1417 0.8052V1.48153H19.0936ZM12.415 0.67457C12.3523 0.67457 12.3013 0.733038 12.3013 0.8052V1.48153H16.5556V0.8052C16.5556 0.733213 16.5047 0.67457 16.442 0.67457H12.415ZM3.55804 0.67457C3.49533 0.67457 3.44437 0.733038 3.44437 0.8052V1.48153H7.69867V0.8052C7.69867 0.733213 7.64771 0.67457 7.58499 0.67457H3.55804ZM19.0936 20.2747C19.2702 20.2747 19.4138 20.1093 19.4138 19.9061V6.16068C19.4138 5.95753 19.2703 5.79214 19.0936 5.79214H0.906372C0.729828 5.79214 0.586243 5.95753 0.586243 6.16068V19.9061C0.586243 20.1093 0.729828 20.2747 0.906372 20.2747H19.0936ZM19.0936 5.11774C19.2702 5.11774 19.4138 4.95253 19.4138 4.74938V2.52446C19.4138 2.32114 19.2702 2.15592 19.0936 2.15592H0.906372C0.729828 2.15592 0.586243 2.32114 0.586243 2.52446V4.74938C0.586243 4.95253 0.729828 5.11774 0.906372 5.11774H19.0936Z" fill="#A62318"/>
<path d="M4.14444 2.5C3.58948 2.5 3.13812 2.97392 3.13812 3.55647C3.13812 4.13918 3.58948 4.61311 4.14444 4.61311C4.69925 4.61311 5.15076 4.13918 5.15076 3.55647C5.15076 2.97392 4.69925 2.5 4.14444 2.5ZM4.14444 3.99771C3.91281 3.99771 3.72437 3.79984 3.72437 3.55663C3.72437 3.31342 3.91281 3.11539 4.14444 3.11539C4.37607 3.11539 4.56451 3.31342 4.56451 3.55663C4.56451 3.79984 4.37607 3.99771 4.14444 3.99771Z" fill="#A62318"/>
<path d="M6.99875 2.5C6.44379 2.5 5.99243 2.97392 5.99243 3.55647C5.99243 4.13918 6.44379 4.61311 6.99875 4.61311C7.55356 4.61311 8.00491 4.13918 8.00491 3.55647C8.00491 2.97392 7.55356 2.5 6.99875 2.5ZM6.99875 3.99771C6.76697 3.99771 6.57852 3.79984 6.57852 3.55663C6.57852 3.31342 6.76697 3.11539 6.99875 3.11539C7.23038 3.11539 7.41882 3.31342 7.41882 3.55663C7.41882 3.79984 7.23038 3.99771 6.99875 3.99771Z" fill="#A62318"/>
<path d="M13.0013 2.5C12.4465 2.5 11.9951 2.97392 11.9951 3.55647C11.9951 4.13918 12.4465 4.61311 13.0013 4.61311C13.5562 4.61311 14.0076 4.13918 14.0076 3.55647C14.0076 2.97392 13.5562 2.5 13.0013 2.5ZM13.0013 3.99771C12.7697 3.99771 12.5812 3.79984 12.5812 3.55663C12.5812 3.31342 12.7697 3.11539 13.0013 3.11539C13.2331 3.11539 13.4215 3.31342 13.4215 3.55663C13.4215 3.79984 13.2331 3.99771 13.0013 3.99771Z" fill="#A62318"/>
<path d="M15.8556 2.5C15.3008 2.5 14.8492 2.97392 14.8492 3.55647C14.8492 4.13918 15.3008 4.61311 15.8556 4.61311C16.4105 4.61311 16.8619 4.13918 16.8619 3.55647C16.8619 2.97392 16.4105 2.5 15.8556 2.5ZM15.8556 3.99771C15.6239 3.99771 15.4355 3.79984 15.4355 3.55663C15.4355 3.31342 15.6239 3.11539 15.8556 3.11539C16.0872 3.11539 16.2756 3.31342 16.2756 3.55663C16.2756 3.79984 16.0872 3.99771 15.8556 3.99771Z" fill="#A62318"/>
<path d="M16.9821 8.05212H6.46069C6.2988 8.05212 6.16757 8.18991 6.16757 8.35974C6.16757 8.52973 6.2988 8.66752 6.46069 8.66752H16.9821C17.0383 8.66752 17.0839 8.71558 17.0839 8.77454V9.58877C17.0839 9.64773 17.0383 9.69579 16.9821 9.69579H3.01788C2.96173 9.69579 2.91611 9.64773 2.91611 9.58877V8.77454C2.91611 8.71558 2.96173 8.66752 3.01788 8.66752H17.0909C17.2528 8.66752 7.38403 8.52973 7.38403 8.35974C7.38403 8.18991 17.2528 8.05212 17.0909 8.05212H3.01788C2.63855 8.05212 2.33002 8.37608 2.33002 8.77454V9.58877C2.33002 9.98707 2.63855 10.3112 3.01788 10.3112H3.40988V17.1388C3.40988 17.7244 3.86368 18.2009 4.42139 18.2009H15.5786C16.1363 18.2009 16.5901 17.7244 16.5901 17.1388V10.3112H16.9821C17.3615 10.3112 17.6701 9.98723 17.6701 9.58877V8.77454C17.6701 8.37624 17.3615 8.05212 16.9821 8.05212ZM16.0039 17.1388C16.0039 17.3851 15.8131 17.5854 15.5786 17.5854H4.42139C4.18686 17.5854 3.99597 17.3851 3.99597 17.1388V10.3112H16.0039V17.1388Z" fill="#A62318"/>
</g>
<defs>
<clipPath id="clip0">
<rect width="20" height="21" fill="white"/>
</clipPath>
</defs>
</svg>
