<svg width="24" height="24" viewBox="0 0 24 24" fill="none" xmlns="http://www.w3.org/2000/svg">
<path d="M12 5.86364C8.60896 5.86364 5.86364 8.61195 5.86364 12C5.86364 15.391 8.61195 18.1364 12 18.1364C15.391 18.1364 18.1364 15.3881 18.1364 12C18.1364 8.60896 15.3881 5.86364 12 5.86364ZM12 15.983C9.79876 15.983 8.01705 14.2002 8.01705 12C8.01705 9.79976 9.79976 8.01704 12 8.01704C14.2002 8.01704 15.983 9.79976 15.983 12C15.984 14.2002 14.2012 15.983 12 15.983Z" fill="white"/>
<path d="M16.9482 0.0753853C14.7402 -0.0276129 9.27123 -0.0226129 7.06123 0.0753853C5.11923 0.166384 3.40623 0.635375 2.02523 2.01635C-0.282773 4.32431 0.0122273 7.43426 0.0122273 11.9952C0.0122273 16.6631 -0.247773 19.701 2.02523 21.974C4.34223 24.29 7.49723 23.987 12.0042 23.987C16.6282 23.987 18.2242 23.99 19.8592 23.357C22.0822 22.494 23.7602 20.507 23.9242 16.9381C24.0282 14.7291 24.0222 9.26123 23.9242 7.05126C23.7262 2.83834 21.4652 0.283382 16.9482 0.0753853ZM20.4432 20.447C18.9302 21.96 16.8312 21.825 11.9752 21.825C6.97523 21.825 4.97023 21.899 3.50723 20.432C1.82223 18.7551 2.12723 16.0621 2.12723 11.9792C2.12723 6.45427 1.56023 2.47534 7.10523 2.19135C8.37923 2.14635 8.75423 2.13135 11.9612 2.13135L12.0062 2.16135C17.3352 2.16135 21.5162 1.60336 21.7672 7.14726C21.8242 8.41224 21.8372 8.79223 21.8372 11.9942C21.8362 16.9361 21.9302 18.9531 20.4432 20.447Z" fill="white"/>
<path d="M18.4091 7.09091C19.2375 7.09091 19.9091 6.41934 19.9091 5.59091C19.9091 4.76248 19.2375 4.09091 18.4091 4.09091C17.5807 4.09091 16.9091 4.76248 16.9091 5.59091C16.9091 6.41934 17.5807 7.09091 18.4091 7.09091Z" fill="white"/>
</svg>
