<svg width="20" height="21" viewBox="0 0 20 21" fill="none" xmlns="http://www.w3.org/2000/svg">
<g clip-path="url(#clip0)">
<path d="M19.9428 19.9986L17.646 13.9319C16.8357 11.7918 17.3936 13.6564 17.2507 13.7617C17.1079 13.867 16.3184 12.1731 17.1288 14.3132L19.3512 20.1836H11.5597C11.5505 20.1203 8.16493 11.1554 8.16493 11.1554L8.66813 9.84474L9.19489 10.8087C9.28368 10.9712 9.41852 11.069 9.56481 11.0769C9.71067 11.0854 9.85098 11.0021 9.94852 10.8497L11.2173 8.86843L13.6836 12.9313C13.7757 13.083 13.9102 13.171 14.0526 13.1727H14.0568C14.1977 13.1727 14.3316 13.0882 14.4246 12.9402L14.4275 12.9355L15.7719 10.7295L16.3184 12.1731C17.4567 15.1794 17.074 13.867 17.2169 13.7617C17.3597 13.6564 18.184 15.3529 16.8357 11.7918L12.5093 0.363685C12.4246 0.140089 12.2594 0.000763129 12.0782 0H12.0768C11.8961 0 11.731 0.137854 11.6456 0.360251L8.57411 8.3609L8.36719 8.89983L7.83543 10.285L6.25453 6.10917C6.19102 5.94145 6.08223 5.82115 5.95532 5.77116C5.91297 5.75448 5.86864 5.7456 5.82328 5.74543H5.82188C5.81582 5.74543 5.80985 5.74598 5.80383 5.74631C5.79887 5.74652 5.79387 5.74658 5.78895 5.74701C5.78446 5.74745 5.78004 5.74827 5.77559 5.74887C5.76895 5.74974 5.76231 5.75045 5.75574 5.7517C5.74985 5.75279 5.74403 5.75443 5.73821 5.75585C5.73332 5.75704 5.72836 5.75797 5.72352 5.75939C5.58282 5.79951 5.46032 5.92455 5.39075 6.10574L4.32004 8.89476L2.51918 13.5856L2.51832 13.5881L0.0585544 19.9952C-0.0233987 20.2087 -0.0191018 20.4603 0.0700388 20.6681C0.159219 20.8759 0.316094 21 0.489687 21H19.5103C19.6833 21 19.8399 20.8765 19.9292 20.6698C20.0186 20.463 20.0236 20.2121 19.9428 19.9986ZM9.06032 8.82319L12.0763 0.967811L15.4775 9.9524L14.057 12.2832L11.5925 8.22326C11.5009 8.07254 11.3673 7.98456 11.2257 7.982C11.2236 7.98195 11.2214 7.98195 11.2193 7.98195C11.0801 7.98195 10.9475 8.06464 10.8546 8.20969L9.58969 10.1848L8.97172 9.05393L9.06032 8.82319ZM0.649961 20.1835L2.86504 14.4137L3.71902 15.4119C3.81113 15.5195 3.92254 15.5724 4.03332 15.5724C4.16766 15.5724 4.30106 15.4947 4.39805 15.343L5.37754 13.8111L6.0084 14.6846C8.09207 17.5692 7.14946 16.0067 7.26325 15.8467C7.37703 15.6867 8.2264 16.6052 6.42051 14.105L5.71782 13.1321C5.62297 13.0009 5.49242 12.9291 5.35844 12.9344C5.22488 12.9401 5.09727 13.0231 5.00836 13.1623L4.02344 14.7027L3.14727 13.6786L5.82137 6.71314L9.27207 15.8282L8.43903 16.8995L7.67696 15.8444C6.42051 14.105 7.37707 15.6867 7.26325 15.8467C7.14946 16.0067 6.0084 14.6846 7.26489 16.424L8.09207 17.5692C8.1875 17.7013 8.31192 17.7677 8.43657 17.7677C8.5552 17.7677 8.67403 17.7075 8.76805 17.5866L9.55493 16.5746L10.9212 20.1835H0.649961Z" fill="#A62318"/>
</g>
<defs>
<clipPath id="clip0">
<rect width="20" height="21" fill="white"/>
</clipPath>
</defs>
</svg>
