<svg width="14" height="17" viewBox="0 0 14 17" fill="none" xmlns="http://www.w3.org/2000/svg">
<path d="M1 2.52084V14.6875C1 15.0909 1.16023 15.4777 1.44544 15.7629C1.73065 16.0481 2.11749 16.2084 2.52084 16.2084H11.6459C12.0492 16.2084 12.436 16.0481 12.7212 15.7629C13.0065 15.4777 13.1667 15.0909 13.1667 14.6875V5.82257C13.1667 5.61997 13.1262 5.41941 13.0475 5.23267C12.9689 5.04594 12.8538 4.8768 12.7089 4.73517L9.33266 1.43344C9.04854 1.15563 8.66697 1.00005 8.2696 1H2.52084C2.11749 1 1.73065 1.16023 1.44544 1.44544C1.16023 1.73065 1 2.11749 1 2.52084V2.52084Z" stroke="#A62318" stroke-linecap="round" stroke-linejoin="round"/>
<path d="M8.60416 1V4.04167C8.60416 4.44502 8.76439 4.83185 9.0496 5.11707C9.33481 5.40228 9.72164 5.56251 10.125 5.56251H13.1667" stroke="#A62318" stroke-linejoin="round"/>
</svg>
