<svg width="17" height="16" viewBox="0 0 17 16" fill="none" xmlns="http://www.w3.org/2000/svg">
<path d="M13.1452 16C12.9798 15.9995 12.8148 15.9821 12.6532 15.9479C9.57649 15.3353 6.74199 13.899 4.47598 11.8043C2.25831 9.70494 0.720246 7.03205 0.0478653 4.10899C-0.0314169 3.74468 -0.0119579 3.36688 0.10437 3.01191C0.220698 2.65694 0.42998 2.33676 0.712082 2.08217L2.68013 0.25898C2.78065 0.167483 2.90009 0.0974166 3.03065 0.0533536C3.16121 0.00929051 3.29995 -0.00777876 3.43783 0.00325979C3.58079 0.0176147 3.71875 0.0619396 3.842 0.133118C3.96526 0.204296 4.07081 0.300598 4.15125 0.415253L6.61131 3.91483C6.70356 4.05062 6.7481 4.21132 6.73835 4.37329C6.72861 4.53526 6.66511 4.68995 6.55719 4.81458L5.32224 6.23525C5.81408 7.28297 6.51062 8.2299 7.37393 9.02449C8.23165 9.84791 9.24546 10.5054 10.3604 10.9613L11.8906 9.79165C12.0191 9.69389 12.1755 9.6361 12.339 9.62595C12.5024 9.6158 12.6652 9.65377 12.8057 9.73483L16.5204 12.0458C16.6479 12.119 16.7565 12.2191 16.8381 12.3385C16.9197 12.4579 16.9722 12.5935 16.9916 12.7352C17.011 12.8768 16.9968 13.0209 16.9502 13.1566C16.9035 13.2922 16.8256 13.416 16.7222 13.5185L14.8033 15.3465C14.5853 15.5552 14.3266 15.7204 14.0421 15.8326C13.7575 15.9447 13.4527 16.0016 13.1452 16ZM3.35911 0.9409L1.39106 2.76409C1.23236 2.90642 1.11489 3.08605 1.05019 3.28532C0.985485 3.4846 0.975789 3.69665 1.02205 3.90062C1.64726 6.64352 3.08443 9.15344 5.15987 11.1271C7.29235 13.0978 9.95975 14.4488 12.8549 15.0244C13.0741 15.0685 13.3012 15.0596 13.5159 14.9984C13.7305 14.9373 13.9261 14.8258 14.085 14.674L16.0038 12.8461L12.4171 10.6156L10.7737 11.8753C10.7108 11.9232 10.6367 11.9556 10.5578 11.9696C10.4789 11.9837 10.3976 11.9789 10.3211 11.9558C8.95659 11.4719 7.72004 10.7038 6.69987 9.70641C5.64468 8.75798 4.82561 7.59246 4.30377 6.29681C4.28169 6.21838 4.28096 6.13579 4.30164 6.057C4.32232 5.97821 4.36372 5.90587 4.42185 5.84694L5.75029 4.31735L3.35911 0.9409Z" fill="#A62318"/>
</svg>
