<svg width="11" height="15" viewBox="0 0 11 15" fill="none" xmlns="http://www.w3.org/2000/svg">
<path d="M3.51539 8.08408C2.70986 6.53002 2.78075 5.24318 2.85389 4.74125C2.87395 4.60241 2.95337 4.48126 3.06879 4.41347L4.24896 3.7149C4.42256 3.61216 4.507 3.39531 4.45259 3.192L3.64723 0.328601C3.58707 0.103509 3.37625 -0.0353879 3.16041 0.00787367L0.50083 0.471659C0.326636 0.505364 0.190178 0.651082 0.158715 0.836988C-0.0547566 2.11912 -0.372984 5.33389 1.63058 9.19959C3.63415 13.0653 6.35245 14.4812 7.48322 14.9677C7.64737 15.0378 7.8353 14.9914 7.9544 14.8514L9.7325 12.687C9.88079 12.5147 9.88266 12.2508 9.73682 12.0769L7.89254 9.82916C7.76025 9.67196 7.54353 9.63333 7.36993 9.736L6.19005 10.4351C6.07508 10.5038 5.93687 10.5115 5.81611 10.4561C5.3792 10.2562 4.32091 9.63813 3.51539 8.08408Z" fill="black"/>
<path d="M8.18658 8.80263C7.96072 8.73376 7.83043 8.4824 7.89557 8.24119C8.38199 6.43239 7.40561 4.54871 5.71297 4.03043C5.48711 3.96157 5.35681 3.7102 5.42196 3.46899C5.4871 3.22779 5.72301 3.08807 5.94887 3.15694C8.09292 3.81337 9.3297 6.19941 8.7135 8.49057C8.64835 8.73178 8.41245 8.87149 8.18658 8.80263Z" fill="black"/>
<path d="M10.2314 9.42608C10.0055 9.35722 9.87525 9.10586 9.9404 8.86465C10.7511 5.84998 9.12382 2.71048 6.30273 1.84672C6.07687 1.77785 5.94658 1.52649 6.01172 1.28528C6.07686 1.04407 6.31277 0.904359 6.53863 0.973222C9.81114 1.97514 11.6989 5.617 10.7583 9.11403C10.727 9.22986 10.654 9.32781 10.5551 9.38633C10.4563 9.44485 10.3399 9.45915 10.2314 9.42608Z" fill="black"/>
</svg>
