<svg width="17" height="17" viewBox="0 0 17 17" fill="none" xmlns="http://www.w3.org/2000/svg">
<path d="M3.27273 2C2.57655 2 2 2.57655 2 3.27273V14.7273C2 15.4235 2.57655 16 3.27273 16H14.7273C15.4235 16 16 15.4235 16 14.7273V3.27273C16 2.57655 15.4235 2 14.7273 2H3.27273ZM3.27273 3.27273H14.7273V14.7273H11.4258V10.4318H13.0765L13.3152 8.52273H11.4265V7.28945C11.4265 6.73327 11.5626 6.35527 12.3606 6.35527H13.3947V4.625C13.2185 4.60273 12.6069 4.56518 11.9037 4.56518C10.4369 4.56518 9.43782 5.44782 9.43782 7.09091V8.52273H7.76736V10.4318H9.43718V14.7273H3.27273V3.27273Z" fill="#A62318"/>
</svg>
