<svg width="17" height="17" viewBox="0 0 17 17" fill="none" xmlns="http://www.w3.org/2000/svg">
<path d="M11.9583 6.33746C11.7007 6.45079 11.4242 6.52871 11.1337 6.56271C11.4305 6.38562 11.6573 6.10512 11.7651 5.7715C11.4823 5.93829 11.1737 6.05562 10.8523 6.11858C10.7172 5.97519 10.5545 5.86118 10.3744 5.78348C10.1942 5.70578 10.0003 5.66604 9.80444 5.66666C9.01134 5.66666 8.36874 6.30771 8.36874 7.0975C8.36874 7.20941 8.38134 7.3185 8.40584 7.42333C7.83697 7.39599 7.27998 7.24897 6.7704 6.99163C6.26082 6.7343 5.80984 6.3723 5.44624 5.92875C5.31854 6.14628 5.2513 6.39469 5.25164 6.64771C5.25164 7.14354 5.50574 7.58271 5.89074 7.83841C5.66285 7.83118 5.43985 7.76979 5.23974 7.6592V7.67691C5.24191 8.00945 5.3579 8.33094 5.56799 8.58666C5.77807 8.84238 6.06925 9.01652 6.39194 9.07941C6.18009 9.1361 5.95843 9.14432 5.74304 9.1035C5.83693 9.38957 6.01652 9.63896 6.25686 9.81705C6.4972 9.99514 6.78638 10.0931 7.08424 10.0973C6.57322 10.4958 5.94579 10.7111 5.30064 10.7093C5.18514 10.7093 5.07104 10.7022 4.95834 10.6895C5.61667 11.1111 6.38002 11.3344 7.15914 11.3333C9.80094 11.3333 11.245 9.15308 11.245 7.26183L11.2401 7.07625C11.5217 6.87599 11.7651 6.62567 11.9583 6.33746Z" fill="#A62318"/>
<path d="M4.21666 2.81666C3.84535 2.81666 3.48926 2.96416 3.22671 3.22671C2.96416 3.48927 2.81666 3.84536 2.81666 4.21666V12.6167C2.81666 12.988 2.96416 13.3441 3.22671 13.6066C3.48926 13.8692 3.84535 14.0167 4.21666 14.0167H12.6167C12.988 14.0167 13.3441 13.8692 13.6066 13.6066C13.8692 13.3441 14.0167 12.988 14.0167 12.6167V4.21666C14.0167 3.84536 13.8692 3.48927 13.6066 3.22671C13.3441 2.96416 12.988 2.81666 12.6167 2.81666H4.21666ZM4.21666 1.41666H12.6167C13.3593 1.41666 14.0715 1.71166 14.5966 2.23677C15.1217 2.76187 15.4167 3.47406 15.4167 4.21666V12.6167C15.4167 13.3593 15.1217 14.0715 14.5966 14.5966C14.0715 15.1217 13.3593 15.4167 12.6167 15.4167H4.21666C3.47405 15.4167 2.76186 15.1217 2.23676 14.5966C1.71166 14.0715 1.41666 13.3593 1.41666 12.6167V4.21666C1.41666 3.47406 1.71166 2.76187 2.23676 2.23677C2.76186 1.71166 3.47405 1.41666 4.21666 1.41666Z" fill="#A62318"/>
</svg>
