<svg width="17" height="17" viewBox="0 0 17 17" fill="none" xmlns="http://www.w3.org/2000/svg">
<path d="M5 2C3.34315 2 2 3.34315 2 5V13C2 14.6569 3.34315 16 5 16H13C14.6569 16 16 14.6569 16 13V5C16 3.34315 14.6569 2 13 2H5ZM3.27273 4.77273C3.27273 3.9443 3.9443 3.27273 4.77273 3.27273H13.2273C14.0557 3.27273 14.7273 3.9443 14.7273 4.77273V13.2273C14.7273 14.0557 14.0557 14.7273 13.2273 14.7273H4.77273C3.9443 14.7273 3.27273 14.0557 3.27273 13.2273V4.77273ZM9 5.86909C9 5.86909 6.20636 5.86909 5.51909 6.05364C5.13727 6.16182 4.83182 6.46091 4.73 6.84909C4.54545 7.54273 4.54545 9.00636 4.54545 9.00636C4.54545 9.00636 4.54545 10.47 4.73 11.17C4.83182 11.5518 5.13727 11.8445 5.51909 11.9464C6.20636 12.1309 9 12.1309 9 12.1309C9 12.1309 11.7936 12.1309 12.4809 11.9464C12.8627 11.8382 13.1682 11.5518 13.27 11.1636C13.4545 10.47 13.4545 9.00636 13.4545 9.00636C13.4545 9.00636 13.4545 7.54909 13.27 6.84909C13.1682 6.46091 12.8627 6.16182 12.4809 6.05364C11.7936 5.86909 9 5.86909 9 5.86909ZM7.72727 7.19018L10.9091 9.00764L7.72727 10.8162V7.19018Z" fill="#A62318"/>
</svg>
