<svg width="17" height="17" viewBox="0 0 17 17" fill="none" xmlns="http://www.w3.org/2000/svg">
<path d="M8.99812 5.40835C7.01056 5.40835 5.40651 7.01243 5.40651 9.00002C5.40651 10.9876 7.01056 12.5917 8.99812 12.5917C10.9857 12.5917 12.5897 10.9876 12.5897 9.00002C12.5897 7.01243 10.9857 5.40835 8.99812 5.40835ZM8.99812 11.3343C7.71277 11.3343 6.66383 10.2854 6.66383 9.00002C6.66383 7.71465 7.71277 6.6657 8.99812 6.6657C10.2835 6.6657 11.3324 7.71465 11.3324 9.00002C11.3324 10.2854 10.2835 11.3343 8.99812 11.3343ZM12.7368 4.42418C12.2728 4.42418 11.898 4.79893 11.898 5.263C11.898 5.72706 12.2728 6.10181 12.7368 6.10181C13.2009 6.10181 13.5756 5.72881 13.5756 5.263C13.5758 5.1528 13.5542 5.04367 13.5121 4.94183C13.47 4.84 13.4082 4.74748 13.3303 4.66956C13.2523 4.59164 13.1598 4.52986 13.058 4.48775C12.9562 4.44565 12.847 4.42404 12.7368 4.42418ZM15.9992 9.00002C15.9992 8.03337 16.008 7.07547 15.9537 6.11057C15.8994 4.98981 15.6437 3.99514 14.8242 3.17559C14.0029 2.35428 13.01 2.10036 11.8893 2.04607C10.9226 1.99179 9.96475 2.00054 8.99987 2.00054C8.03323 2.00054 7.07536 1.99179 6.11047 2.04607C4.98973 2.10036 3.99508 2.35603 3.17554 3.17559C2.35425 3.99689 2.10034 4.98981 2.04605 6.11057C1.99177 7.07722 2.00052 8.03512 2.00052 9.00002C2.00052 9.96492 1.99177 10.9246 2.04605 11.8895C2.10034 13.0102 2.356 14.0049 3.17554 14.8245C3.99683 15.6458 4.98973 15.8997 6.11047 15.954C7.07711 16.0083 8.03499 15.9995 8.99987 15.9995C9.9665 15.9995 10.9244 16.0083 11.8893 15.954C13.01 15.8997 14.0047 15.644 14.8242 14.8245C15.6455 14.0032 15.8994 13.0102 15.9537 11.8895C16.0097 10.9246 15.9992 9.96668 15.9992 9.00002ZM14.4582 13.1293C14.3304 13.448 14.1763 13.6862 13.9294 13.9314C13.6824 14.1783 13.446 14.3324 13.1273 14.4602C12.2062 14.8262 10.019 14.7439 8.99812 14.7439C7.9772 14.7439 5.78826 14.8262 4.86715 14.462C4.54844 14.3341 4.31029 14.18 4.06513 13.9331C3.81822 13.6862 3.66411 13.4498 3.53628 13.1311C3.17204 12.2082 3.25434 10.021 3.25434 9.00002C3.25434 7.97908 3.17204 5.7901 3.53628 4.86898C3.66411 4.55027 3.81822 4.31211 4.06513 4.06694C4.31204 3.82177 4.54844 3.66592 4.86715 3.53808C5.78826 3.17384 7.9772 3.25614 8.99812 3.25614C10.019 3.25614 12.208 3.17384 13.1291 3.53808C13.4478 3.66592 13.6859 3.82002 13.9311 4.06694C14.178 4.31386 14.3321 4.55027 14.46 4.86898C14.8242 5.7901 14.7419 7.97908 14.7419 9.00002C14.7419 10.021 14.8242 12.2082 14.4582 13.1293Z" fill="#A62318"/>
</svg>
