<svg width="17" height="17" viewBox="0 0 17 17" fill="none" xmlns="http://www.w3.org/2000/svg">
<path d="M4.59764 2C3.90953 2.00268 3.25036 2.27722 2.76379 2.76379C2.27722 3.25036 2.00268 3.90953 2 4.59764V13.4024C2.00268 14.0905 2.27722 14.7496 2.76379 15.2362C3.25036 15.7228 3.90953 15.9973 4.59764 16H13.4024C14.0905 15.9973 14.7496 15.7228 15.2362 15.2362C15.7228 14.7496 15.9973 14.0905 16 13.4024V4.59764C15.9973 3.90953 15.7228 3.25036 15.2362 2.76379C14.7496 2.27722 14.0905 2.00268 13.4024 2H4.59764ZM4.59764 3.27273H13.4024C14.1405 3.27273 14.7273 3.85945 14.7273 4.59764V13.4024C14.7273 14.1405 14.1405 14.7273 13.4024 14.7273H4.59764C4.42334 14.7284 4.25056 14.6949 4.08932 14.6287C3.92808 14.5625 3.78158 14.4649 3.65834 14.3417C3.53509 14.2184 3.43754 14.0719 3.37134 13.9107C3.30515 13.7494 3.27163 13.5767 3.27273 13.4024V4.59764C3.27273 3.85945 3.85945 3.27273 4.59764 3.27273ZM8.82118 6.60091C8.35345 6.59645 7.95573 6.60091 7.73236 6.71036C7.58282 6.78291 7.46891 6.94645 7.53827 6.95409C7.62545 6.96682 7.82145 7.00882 7.92645 7.15073C8.06009 7.33209 8.05564 7.74255 8.05564 7.74255C8.05564 7.74255 8.13009 8.87082 7.87364 9.01273C7.69736 9.10945 7.45618 8.91282 6.93436 8.01555C6.66836 7.55355 6.46727 7.04382 6.46727 7.04382C6.46727 7.04382 6.42909 6.949 6.36036 6.89936C6.27573 6.83764 6.15864 6.81727 6.15864 6.81727L4.91327 6.82491C4.91327 6.82491 4.72682 6.83255 4.66 6.91209C4.59764 6.98655 4.65491 7.13291 4.65491 7.13291C4.65491 7.13291 5.62918 9.41236 6.73264 10.561C7.74445 11.6155 8.89309 11.5455 8.89309 11.5455H9.41491C9.41491 11.5455 9.57146 11.5283 9.651 11.4436C9.72609 11.3641 9.72354 11.2145 9.72354 11.2145C9.72354 11.2145 9.71336 10.5165 10.0366 10.4121C10.3574 10.3122 10.7646 11.0879 11.1999 11.3864C11.5308 11.6123 11.7815 11.5626 11.7815 11.5626L12.9455 11.5455C12.9455 11.5455 13.5519 11.5079 13.2636 11.0281C13.2414 10.9912 13.0969 10.6755 12.4014 10.029C11.6702 9.35318 11.7675 9.46264 12.647 8.29173C13.1815 7.57836 13.3954 7.14309 13.3279 6.95409C13.2643 6.77782 12.871 6.82491 12.871 6.82491L11.5607 6.83255C11.5607 6.83255 11.464 6.81982 11.3921 6.86245C11.3426 6.89917 11.3033 6.94776 11.2775 7.00373C11.2775 7.00373 11.0688 7.55545 10.7926 8.02573C10.211 9.01464 9.97491 9.06936 9.88073 9.00764C9.65927 8.86318 9.714 8.43045 9.714 8.125C9.714 7.16282 9.86036 6.76509 9.43082 6.66136C9.28891 6.62636 9.18391 6.60409 8.82118 6.60091Z" fill="#A62318"/>
</svg>
