<svg width="17" height="17" viewBox="0 0 17 17" fill="none" xmlns="http://www.w3.org/2000/svg">
<path d="M15.8333 3.33335H12.3327V2.50002C12.3321 2.01396 12.1388 1.54796 11.7951 1.20427C11.4514 0.86057 10.9854 0.667238 10.4993 0.666687H6.49933C6.01327 0.667238 5.54728 0.86057 5.20358 1.20427C4.85988 1.54796 4.66655 2.01396 4.666 2.50002V3.33335H1.16667C0.857356 3.33371 0.560815 3.45674 0.342099 3.67545C0.123383 3.89417 0.000352894 4.19071 0 4.50002V15.1667C0.000352894 15.476 0.123383 15.7725 0.342099 15.9913C0.560815 16.21 0.857356 16.333 1.16667 16.3334H15.8333C16.1426 16.333 16.4392 16.21 16.6579 15.9913C16.8766 15.7725 16.9996 15.476 17 15.1667V4.50002C16.9996 4.19071 16.8766 3.89417 16.6579 3.67545C16.4392 3.45674 16.1426 3.33371 15.8333 3.33335ZM5.666 2.50002C5.66624 2.27908 5.75412 2.06726 5.91035 1.91103C6.06657 1.7548 6.27839 1.66693 6.49933 1.66669H10.4993C10.7203 1.66693 10.9321 1.7548 11.0883 1.91103C11.2445 2.06726 11.3324 2.27908 11.3327 2.50002V3.33335H5.666V2.50002ZM11.3327 4.33335V15.3334H5.666V4.33335H11.3327ZM1 15.1667V4.50002C1.00007 4.45584 1.01765 4.41348 1.04889 4.38224C1.08013 4.351 1.12248 4.33342 1.16667 4.33335H4.666V15.3334H1.16667C1.12248 15.3333 1.08013 15.3157 1.04889 15.2845C1.01765 15.2532 1.00007 15.2109 1 15.1667ZM16 15.1667C15.9999 15.2109 15.9824 15.2532 15.9511 15.2845C15.9199 15.3157 15.8775 15.3333 15.8333 15.3334H12.3327V4.33335H15.8333C15.8775 4.33342 15.9199 4.351 15.9511 4.38224C15.9824 4.41348 15.9999 4.45584 16 4.50002V15.1667Z" fill="#828282"/>
</svg>
