<svg width="104" height="70" viewBox="0 0 104 70" fill="none" xmlns="http://www.w3.org/2000/svg">
<path fill-rule="evenodd" clip-rule="evenodd" d="M0.657914 25.0391C2.76701 24.8585 12.3579 40.9336 15.8878 40.6852C19.3956 40.4143 25.0346 38.721 26.8773 38.3146C53.0745 32.6703 55.1392 31.5188 81.3364 39.8499C85.9987 41.34 90.1725 38.7661 93.0808 39.5338C112.573 44.6588 100.052 51.9062 99.9187 56.1056C99.8965 56.67 93.9244 55.2477 92.1262 55.4057C90.3279 55.5637 82.0913 56.8507 80.8036 57.5506C79.516 58.2505 76.8518 57.2571 73.7659 58.4537C71.9676 59.1536 49.8776 72.4291 50.255 69.6069C50.4104 68.4555 55.5167 59.2213 56.9597 58.1827C58.425 57.1668 66.1954 57.1667 62.5988 55.338C58.98 53.5092 50.033 53.5092 44.9934 52.1094C39.9537 50.7096 36.6902 48.2487 32.472 46.9166C28.2538 45.5846 23.636 43.9364 19.7508 44.1847C15.8878 44.4331 8.40607 64.0529 6.20817 64.8656C4.01027 65.701 5.56434 50.8225 6.60779 49.1066C7.65124 47.3908 14.0229 46.8037 13.0017 44.0267C11.9804 41.2497 5.65315 42.8075 3.89927 41.7464C2.10098 40.6852 -1.47338 25.2197 0.657914 25.0391ZM24.635 0.00073094C23.5472 0.0910407 25.3899 8.106 26.3001 8.64786C27.2103 9.18971 30.4739 8.39948 31.0067 9.82186C31.5395 11.2442 28.2538 11.5603 27.6988 12.4408C27.1659 13.3214 26.3445 21.0203 27.499 20.5913C28.6312 20.1624 32.4942 10.0251 34.5145 9.91219C36.5126 9.77672 38.9103 10.6347 41.086 11.312C43.2617 11.9893 44.949 13.2536 47.5687 13.9987C50.1884 14.7212 54.8062 14.7212 56.6711 15.6695C58.536 16.6177 54.5176 16.5951 53.7628 17.137C53.0079 17.6789 50.366 22.4427 50.2994 23.0297C50.0996 24.4972 61.5331 17.6337 62.4434 17.2724C64.0419 16.6629 65.4183 17.1821 66.0844 16.8209C66.7504 16.4596 71.013 15.8049 71.9454 15.7146C72.8779 15.6243 75.9638 16.3694 75.986 16.0758C76.0526 13.9084 82.5131 10.1605 72.456 7.51898C70.9464 7.11259 68.7929 8.44468 66.3952 7.67704C52.8525 3.36475 51.7869 3.97433 38.2443 6.88682C37.2896 7.09002 34.3813 7.97056 32.5608 8.10602C30.6737 8.21891 25.7229 -0.0895788 24.635 0.00073094Z" fill="#6FAEEA"/>
</svg>
